<svg width="112" height="51" viewBox="0 0 112 51" fill="none" xmlns="http://www.w3.org/2000/svg">
<g clip-path="url(#clip0_203_3860)">
<path d="M3.47287 23.4183H6.34466C8.01431 23.4183 9.21646 23.0176 9.9511 22.1494C10.6857 21.2812 11.0865 19.8787 11.0865 17.9419C11.0865 16.0051 10.7525 14.6026 10.0847 13.6676C9.41682 12.7326 8.34824 12.3319 6.87895 12.3319H3.47287V23.4183ZM0 26.5573V9.2597H6.74538C9.41682 9.2597 11.3536 9.99435 12.6893 11.3969C13.9583 12.7994 14.6261 15.0033 14.6261 17.8751C14.6261 19.4779 14.359 20.8137 13.8915 22.0158C13.424 23.218 12.6893 24.2197 11.8211 24.9544C11.1533 25.4887 10.3518 25.8894 9.4836 26.1565C8.61538 26.4237 7.41324 26.4905 5.81038 26.4905C5.81038 26.5573 0 26.5573 0 26.5573Z" fill="#00497C"/>
<path d="M19.2344 18.8101H24.2433C24.1765 17.9419 23.9762 17.274 23.5754 16.8733C23.1747 16.4058 22.5069 16.2054 21.7722 16.2054C21.0376 16.2054 20.4365 16.4058 20.0358 16.8733C19.5683 17.3408 19.3011 17.9419 19.2344 18.8101ZM24.1765 22.6837H27.5826C27.2487 24.0194 26.514 25.088 25.5122 25.8226C24.4437 26.5573 23.1747 26.958 21.7054 26.958C19.8354 26.958 18.4329 26.3569 17.2976 25.088C16.229 23.819 15.6947 22.1494 15.6947 20.079C15.6947 18.0087 16.229 16.339 17.2976 15.1369C18.3661 13.9347 19.8354 13.3336 21.6387 13.3336C23.5754 13.3336 25.1115 13.9347 26.1801 15.1369C27.2487 16.339 27.783 18.0087 27.783 20.2126C27.783 20.4797 27.783 20.6133 27.783 20.7469V21.0808H19.2344C19.3011 22.0826 19.5015 22.8172 19.969 23.3515C20.4365 23.8858 21.0376 24.0862 21.9058 24.0862C22.5069 24.0862 22.9744 23.9526 23.3751 23.7522C23.709 23.4851 23.9762 23.1512 24.1765 22.6837Z" fill="#00497C"/>
<path d="M29.3859 9.2597H32.7919V26.5573H29.3859V9.2597Z" fill="#00497C"/>
<path d="M36.0645 26.5573V16.2054H34.2612V13.8011H36.0645V12.599C36.0645 11.3969 36.3984 10.5286 36.9995 9.99435C37.6005 9.46006 38.6023 9.12614 39.8712 9.12614C40.1384 9.12614 40.3388 9.12614 40.6727 9.12614C40.9398 9.12614 41.207 9.12614 41.5409 9.19292V11.9311H40.6727C40.1384 11.9311 39.8045 11.9979 39.6709 12.1315C39.5373 12.2651 39.4037 12.5322 39.4037 12.8661V13.7344H41.5409V16.1387H39.4037V26.4905C39.4037 26.5573 36.0645 26.5573 36.0645 26.5573Z" fill="#00497C"/>
<path d="M43.2773 13.8011H46.6834V26.5573H43.2773V13.8011ZM43.2773 9.2597H46.6834V12.3986H43.2773V9.2597Z" fill="#00497C"/>
<path d="M48.9541 26.5573V13.8012H52.2934V15.3372C52.7609 14.7362 53.362 14.2687 53.963 13.9347C54.6309 13.6008 55.3655 13.4672 56.1002 13.4672C57.5027 13.4672 58.5713 13.8012 59.2391 14.5358C59.907 15.2705 60.3077 16.339 60.3077 17.8083V26.4905H56.9016V18.8101C56.9016 17.8751 56.7681 17.274 56.4341 16.8733C56.1002 16.4726 55.6327 16.2722 54.898 16.2722C54.0966 16.2722 53.4288 16.5394 52.9613 17.0069C52.4938 17.4744 52.2266 18.1422 52.2266 18.9437V26.4905H48.9541V26.5573Z" fill="#00497C"/>
<path d="M87.5563 0.844665C87.8235 0.844665 88.2242 0.844665 88.6249 0.91145C88.8253 0.91145 89.0256 0.91145 89.2928 0.978236C89.5599 0.978236 89.7603 1.04502 90.0274 1.04502C91.096 1.17859 92.3649 1.37895 93.8342 1.77967C95.3035 2.18038 96.9064 2.78146 98.5092 3.64967C100.179 4.51789 101.849 5.65325 103.451 7.05575C104.253 7.7904 105.054 8.52504 105.789 9.39326C106.19 9.79398 106.524 10.2615 106.857 10.729C107.058 10.9293 107.191 11.1965 107.392 11.3968L107.659 11.7308L107.926 12.0647C109.195 14.0015 110.264 16.2054 110.998 18.5429C111.332 19.6783 111.599 20.9472 111.8 22.1494C112 23.3515 112.067 24.6204 112.067 25.8894C112.067 26.5572 112.067 27.0915 112 27.7594C111.933 28.3605 111.866 29.0283 111.8 29.6294C111.599 30.8315 111.332 32.0337 110.998 33.2358C110.264 35.5733 109.262 37.7773 107.926 39.7141C107.258 40.7159 106.59 41.5841 105.856 42.4523C105.121 43.3205 104.32 44.0552 103.518 44.7898C101.915 46.1923 100.246 47.3277 98.576 48.1959C96.9064 49.0641 95.3035 49.6652 93.901 50.0659C92.4317 50.4666 91.1628 50.667 90.0942 50.8005C89.827 50.8005 89.5599 50.8673 89.3596 50.8673C89.0924 50.8673 88.8921 50.8673 88.6917 50.9341C88.291 50.9341 87.8903 51.0009 87.6231 51.0009C87.022 51.0009 87.022 51.0009 87.6231 50.9341C87.8903 50.9341 88.291 50.8673 88.6917 50.8673C88.8921 50.8673 89.0924 50.8005 89.3596 50.8005C89.6267 50.7337 89.827 50.7337 90.0942 50.667C91.1628 50.5334 92.4317 50.2662 93.8342 49.7987C95.2367 49.3312 96.7728 48.7302 98.3757 47.8619C99.9785 46.9937 101.581 45.8584 103.117 44.4559C103.852 43.7212 104.654 42.9866 105.321 42.1184C105.655 41.7176 105.989 41.2501 106.323 40.8494C106.524 40.6491 106.657 40.3819 106.791 40.1816L107.058 39.8476L107.258 39.5137C108.46 37.6437 109.462 35.4398 110.13 33.169C110.464 32.0337 110.731 30.8315 110.931 29.6962C110.998 29.0951 111.065 28.494 111.132 27.893C111.199 27.2919 111.199 26.6908 111.199 26.0897C111.199 24.8876 111.132 23.6854 110.931 22.4833C110.731 21.2812 110.531 20.1458 110.13 19.0104C109.462 16.7397 108.46 14.6026 107.258 12.6658L107.058 12.3318L106.791 11.9979C106.657 11.7976 106.457 11.5304 106.323 11.3301C105.989 10.8626 105.655 10.4618 105.321 10.0611C104.654 9.1929 103.852 8.45826 103.117 7.72361C101.515 6.05397 99.9117 4.91861 98.3089 4.05039C96.706 3.18217 95.1699 2.51431 93.7674 2.1136C92.3649 1.6461 91.096 1.37895 90.0274 1.24538C89.7603 1.17859 89.4931 1.17859 89.2928 1.11181C89.0256 1.11181 88.8253 1.04502 88.6249 1.04502C88.1574 0.978236 87.8235 0.91145 87.5563 0.844665C86.9553 0.91145 86.9553 0.844665 87.5563 0.844665Z" fill="#00497C"/>
<path d="M84.1503 0.844665C84.4174 0.844665 84.7514 0.844665 85.0853 0.91145C85.486 0.91145 85.8867 0.978236 86.421 1.04502C87.4228 1.24538 88.5582 1.51252 89.8271 1.98003C91.096 2.51431 92.4985 3.18217 93.901 4.18396C94.5689 4.65146 95.3035 5.25254 95.9714 5.85361C96.6393 6.45468 97.3071 7.12254 97.975 7.92397C98.6428 8.65862 99.2439 9.46005 99.7782 10.3283C100.045 10.729 100.379 11.1965 100.646 11.664C100.78 11.8643 100.914 12.1315 101.047 12.3318C101.181 12.5322 101.314 12.7993 101.448 12.9997C101.915 13.9347 102.383 14.9365 102.784 15.9383C102.984 16.4726 103.184 16.9401 103.318 17.4744C103.385 17.7415 103.451 18.0086 103.585 18.2758C103.652 18.5429 103.719 18.8101 103.785 19.0772C104.052 20.1458 104.253 21.2812 104.453 22.4165C104.587 23.5519 104.654 24.6872 104.72 25.8226C104.72 26.4237 104.72 26.958 104.654 27.4922C104.654 27.7594 104.587 28.0933 104.587 28.3605L104.52 29.2287C104.386 30.364 104.186 31.4994 103.852 32.568C103.785 32.8351 103.719 33.1023 103.652 33.3694C103.585 33.6366 103.518 33.9037 103.385 34.1708C103.184 34.7051 103.051 35.2394 102.85 35.7069C102.45 36.7087 101.982 37.7105 101.515 38.6455C101.381 38.9126 101.247 39.113 101.114 39.3134C100.98 39.5137 100.847 39.7809 100.713 39.9812C100.446 40.4487 100.179 40.8494 99.845 41.3169C99.2439 42.1851 98.6428 42.9866 97.975 43.6544C97.3071 44.3891 96.6393 45.0569 95.9714 45.7248C95.3035 46.3259 94.5689 46.927 93.901 47.3945C92.4985 48.3962 91.096 49.1309 89.8271 49.5984C88.5582 50.1327 87.356 50.3998 86.421 50.5334C85.9535 50.6002 85.486 50.667 85.1521 50.667C84.7514 50.667 84.4174 50.7337 84.1503 50.7337C83.616 50.7337 83.616 50.7338 84.1503 50.667C84.6846 50.6002 85.4192 50.5334 86.3542 50.333C87.2892 50.1327 88.4246 49.7987 89.6935 49.1977C90.8957 48.6634 92.2314 47.862 93.5671 46.8602C94.9028 45.8584 96.1718 44.5894 97.3739 43.1202C98.576 41.6509 99.6446 39.9812 100.58 38.1112C101.047 37.1762 101.448 36.2412 101.849 35.2394C102.249 34.2376 102.516 33.2358 102.784 32.1673C103.051 31.0987 103.251 30.0301 103.385 28.9615L103.451 28.1601C103.451 27.893 103.518 27.6258 103.518 27.3587C103.585 26.8244 103.585 26.2233 103.585 25.689C103.585 24.6205 103.518 23.4851 103.385 22.4165C103.251 21.3479 103.051 20.2794 102.784 19.2108C102.516 18.1422 102.182 17.1404 101.849 16.1386C101.515 15.1369 101.047 14.2018 100.58 13.2668C100.112 12.3318 99.5778 11.4636 99.0436 10.6622C98.5093 9.86076 97.9082 9.05933 97.3071 8.32469C96.105 6.8554 94.836 5.58647 93.5003 4.58468C92.1646 3.58289 90.8957 2.78146 89.6267 2.24717C88.4246 1.71288 87.2892 1.37895 86.2874 1.11181C85.486 1.04502 84.6846 0.91145 84.1503 0.844665C83.6828 0.844665 83.6828 0.844665 84.1503 0.844665Z" fill="#05567D"/>
<path d="M81.0113 0.844665C81.2785 0.844665 81.5456 0.91145 81.8795 0.91145C82.0799 0.91145 82.2135 0.978236 82.4138 0.978236C82.6142 1.04502 82.8146 1.04502 83.0149 1.11181C83.8831 1.31217 84.9517 1.71288 86.0203 2.38074C87.0889 3.0486 88.2242 3.91682 89.3596 5.05218C90.4281 6.18754 91.4967 7.45647 92.4985 8.99255C93.4335 10.5286 94.3685 12.1315 95.0364 13.9347C95.3703 14.8029 95.771 15.7379 96.0382 16.7397C96.1717 17.2072 96.3053 17.6747 96.4389 18.209C96.5724 18.6765 96.706 19.2108 96.7728 19.6783C96.9732 20.6801 97.1735 21.6819 97.3071 22.7504C97.4407 23.7522 97.5075 24.8208 97.5075 25.8894C97.5075 26.4237 97.5074 26.8912 97.4407 27.4255C97.4407 27.6926 97.4407 27.9597 97.3739 28.2269L97.3071 29.0283C97.1735 30.0301 97.04 31.0987 96.8396 32.1005C96.4389 34.1041 95.771 36.0408 95.1032 37.8441C94.3685 39.6473 93.5003 41.3169 92.4985 42.7862C91.5635 44.3223 90.4949 45.5912 89.3596 46.7266C88.291 47.862 87.1556 48.7302 86.0203 49.3312C84.9517 49.9991 83.8831 50.3998 83.0149 50.6002C82.8146 50.667 82.6142 50.7337 82.4138 50.7337C82.2135 50.8005 82.0131 50.8005 81.8795 50.8005C81.5456 50.8005 81.2117 50.8673 81.0113 50.8673C80.5438 50.8673 80.5438 50.8673 81.0113 50.8005C81.2785 50.8005 81.5456 50.7338 81.8795 50.667C82.0799 50.667 82.2135 50.6002 82.4138 50.5334C82.6142 50.4666 82.8146 50.4666 83.0149 50.333C83.8831 50.0659 84.8181 49.5984 85.8199 48.9305C86.8217 48.2627 87.8903 47.3277 88.8921 46.1923C89.8939 45.0569 90.8289 43.7212 91.6971 42.2519C92.5653 40.7826 93.3667 39.113 94.0346 37.3766C94.7024 35.6401 95.2367 33.7701 95.6374 31.8333C95.8378 30.8983 95.9714 29.8965 96.1049 28.8948L96.1717 28.1601C96.1717 27.893 96.1717 27.6926 96.2385 27.4255C96.3053 26.958 96.2385 26.4237 96.3053 25.9562C96.3053 24.9544 96.2385 23.9526 96.1717 22.9508C96.0382 21.949 95.9046 20.9472 95.7042 20.0122C95.3035 18.0754 94.7692 16.2054 94.1014 14.469C93.4335 12.7326 92.6321 11.0629 91.7639 9.59362C90.8956 8.12433 89.8939 6.78861 88.9589 5.65325C87.9571 4.51789 86.9553 3.58289 85.8867 2.91503C84.8849 2.24717 83.8831 1.77967 83.0817 1.44574C82.8813 1.37895 82.681 1.31217 82.4806 1.24538C82.2803 1.17859 82.0799 1.11181 81.9463 1.11181C81.6124 1.04502 81.3453 0.978236 81.0781 0.978236C80.5438 0.844665 80.5438 0.844665 81.0113 0.844665Z" fill="#0B647A"/>
<path d="M78.4067 0.777918C78.8742 0.844704 79.4753 0.91149 80.2767 1.31221C81.0113 1.64613 81.8796 2.24721 82.7478 3.04864C83.616 3.85007 84.4174 4.85186 85.2189 6.05401C86.0203 7.25615 86.7549 8.59187 87.4228 10.0612C88.0907 11.5305 88.6917 13.1333 89.226 14.8697C89.7603 16.5394 90.2278 18.3426 90.4949 20.2126C90.8289 22.0826 91.0292 23.9526 91.0292 25.8894C91.0292 26.3569 91.0292 26.8244 90.9624 27.2919C90.9624 27.7594 90.8957 28.2269 90.8289 28.6944C90.7621 29.6294 90.6285 30.5644 90.4949 31.4994C90.2278 33.3694 89.7603 35.1059 89.226 36.8423C88.6917 38.512 88.0907 40.1816 87.4228 41.6509C86.7549 43.1202 86.0203 44.5227 85.2189 45.6581C84.4174 46.8602 83.616 47.862 82.7478 48.6634C81.8796 49.4649 81.0781 50.0659 80.2767 50.3999C79.5421 50.7338 78.8742 50.8674 78.4067 50.8674C77.9392 50.8674 77.9392 50.8674 78.4067 50.8006C78.8074 50.667 79.4753 50.5334 80.1431 50.1327C80.811 49.732 81.6124 49.1309 82.3471 48.2627C83.0817 47.4613 83.8164 46.3927 84.4842 45.1906C85.1521 43.9884 85.8199 42.6527 86.421 41.1834C87.0221 39.7141 87.4896 38.1112 87.9571 36.4416C88.1574 35.6402 88.3578 34.772 88.5582 33.9037C88.7585 33.0355 88.8921 32.1673 89.0257 31.2323C89.1592 30.3641 89.2928 29.4291 89.3596 28.5609C89.4264 28.0934 89.4264 27.6259 89.4264 27.2251C89.4264 26.8244 89.4264 26.2901 89.4264 25.8894C89.4264 24.9544 89.3596 24.0862 89.2928 23.1512C89.226 22.2162 89.0924 21.348 88.9589 20.4798C88.6917 18.6765 88.291 16.9401 87.8235 15.2705C87.356 13.6008 86.8217 11.998 86.2874 10.5287C85.6864 9.05937 85.0853 7.72365 84.4174 6.52151C83.7496 5.31936 83.0149 4.31757 82.2803 3.44935C81.5456 2.64792 80.811 1.98006 80.0763 1.57935C79.4085 1.17863 78.7406 0.978276 78.3399 0.91149C77.9392 0.844704 77.9392 0.777918 78.4067 0.777918Z" fill="#177472"/>
<path d="M75.2678 0.777918C75.4013 0.777918 75.5349 0.777918 75.7353 0.844704C76.136 0.91149 76.7371 1.17863 77.2713 1.77971C77.8056 2.31399 78.4067 3.04864 78.941 3.98364C79.4753 4.91864 80.0096 5.98722 80.5439 7.18937C81.0114 8.39151 81.5456 9.72723 81.9464 11.1965C82.3471 12.599 82.7478 14.1351 83.0817 15.738C83.4156 17.3408 83.6828 19.0105 83.9499 20.6801C84.1503 22.3498 84.2839 24.153 84.3507 25.8894C84.3507 27.6926 84.2171 29.4291 84.0167 31.0987C83.8164 32.8352 83.4824 34.438 83.2153 36.0409C82.8814 37.6437 82.4806 39.1798 82.0799 40.5823C81.6792 42.0516 81.2117 43.3873 80.6774 44.5895C80.2099 45.7916 79.6088 46.8602 79.0746 47.7952C78.5403 48.7302 77.9392 49.4649 77.3381 49.9991C76.8038 50.5334 76.2028 50.8006 75.8021 50.8674C75.6017 50.9341 75.4681 50.9341 75.3346 50.9341C75.4681 50.9341 75.6017 50.8674 75.8021 50.8006C76.0024 50.7338 76.2028 50.6002 76.4031 50.4666C76.6035 50.2663 76.8706 50.0659 77.071 49.7988C77.5385 49.2645 78.006 48.4631 78.4735 47.5281C78.941 46.5931 79.3417 45.5245 79.7424 44.3223C80.1431 43.1202 80.4771 41.7845 80.811 40.3152C81.1449 38.9127 81.4121 37.3766 81.6792 35.7737C81.9464 34.1709 82.1467 32.568 82.3471 30.8984C82.4806 29.2287 82.6142 27.5591 82.6142 25.8894C82.6142 24.2198 82.4806 22.5501 82.2803 20.8805C82.0799 19.2108 81.8796 17.608 81.6124 16.0051C81.3453 14.4022 81.0781 12.933 80.7442 11.4637C80.4103 10.0612 80.0764 8.72544 79.6756 7.45651C79.2749 6.25436 78.8742 5.119 78.4735 4.184C78.006 3.249 77.6053 2.44757 77.1378 1.91328C76.9374 1.64613 76.6703 1.37899 76.4699 1.24542C76.2696 1.04506 76.0024 0.978276 75.8688 0.91149C75.5349 0.844704 75.4013 0.777918 75.2678 0.777918Z" fill="#2D8364"/>
<path d="M72.5295 0.711119H72.6631C72.7967 0.711119 72.9303 0.777905 73.0638 0.911477C73.331 1.17862 73.6649 1.64612 73.932 2.31398C74.1992 2.98184 74.5331 3.78327 74.8003 4.71827C75.0674 5.65328 75.3345 6.78864 75.6017 7.924C75.8688 9.12614 76.136 10.3951 76.3363 11.7976C76.5367 13.2001 76.8038 14.6026 76.9374 16.1387C77.1378 17.6747 77.2713 19.2108 77.4049 20.8137C77.5385 22.4165 77.6053 24.0194 77.6053 25.6891C77.6053 27.3587 77.5385 28.9616 77.4049 30.5644C77.2713 32.1673 77.1378 33.7034 76.9374 35.2394C76.7371 36.7755 76.5367 38.2448 76.3363 39.5805C76.136 40.983 75.8688 42.252 75.6017 43.4541C75.3345 44.6563 75.0674 45.7248 74.8003 46.6598C74.5331 47.5948 74.1992 48.4631 73.932 49.0641C73.6649 49.732 73.331 50.1995 73.0638 50.4666C72.9303 50.6002 72.7967 50.667 72.6631 50.667H72.5295L72.6631 50.6002C72.7299 50.5334 72.8635 50.4666 72.997 50.3331C73.1974 50.0659 73.3978 49.5316 73.5981 48.8638C73.7985 48.1959 73.932 47.3277 74.1324 46.3927C74.266 45.4577 74.3995 44.3223 74.5999 43.1202C74.7335 41.918 74.8671 40.6491 75.0006 39.2466C75.1342 37.8441 75.201 36.4416 75.3346 34.9055C75.4681 33.3694 75.5349 31.8334 75.6017 30.2973C75.6685 28.6944 75.7353 27.0916 75.7353 25.5555C75.7353 23.9526 75.6685 22.3498 75.6017 20.8137C75.5349 19.2108 75.4013 17.6747 75.3346 16.2055C75.201 14.6694 75.1342 13.2669 75.0006 11.8644C74.8671 10.4619 74.7335 9.19293 74.5999 7.99078C74.4663 6.78864 74.3328 5.72006 74.1324 4.71827C73.9988 3.78327 73.7985 2.91505 73.5981 2.24719C73.3978 1.57934 73.1974 1.04505 72.997 0.777905C72.8635 0.644333 72.7967 0.510761 72.6631 0.510761L72.5295 0.711119Z" fill="#419251"/>
<path d="M69.9249 0.711099C69.9249 0.711099 69.9249 0.911456 69.9917 1.24539C70.0585 1.57932 70.0585 2.18039 70.1252 2.84825C70.192 3.51611 70.2588 4.38432 70.3256 5.31933C70.3924 6.25433 70.4592 7.38969 70.526 8.52505C70.5927 9.7272 70.6595 10.9961 70.7263 12.3318C70.7931 13.6676 70.8599 15.1369 70.8599 16.6061C70.9267 18.0754 70.9267 19.6115 70.9267 21.1476C70.9267 22.6837 70.9267 24.2865 70.9267 25.8226C70.9267 27.4255 70.9267 28.9615 70.9267 30.4976C70.9267 32.0337 70.8599 33.5698 70.8599 35.0391C70.7931 36.5084 70.7931 37.9109 70.7263 39.3134C70.6595 40.6491 70.5927 41.918 70.526 43.1202C70.4592 44.3223 70.3924 45.3909 70.3256 46.3259C70.2588 47.2609 70.192 48.1291 70.1252 48.797C70.0585 49.4648 69.9917 49.9991 69.9917 50.3998C69.9249 50.7338 69.9249 50.9341 69.9249 50.9341C69.9249 50.9341 69.9249 50.7338 69.8581 50.3998C69.7913 49.9991 69.7913 49.4648 69.7245 48.797C69.6577 48.1291 69.591 47.2609 69.5242 46.3259C69.4574 45.3909 69.3906 44.2555 69.3238 43.1202C69.257 41.918 69.1902 40.6491 69.1235 39.3134C69.0567 37.9776 68.9899 36.5084 68.9899 35.0391C68.9231 33.5698 68.9231 32.0337 68.9231 30.4976C68.9231 28.9615 68.9231 27.3587 68.9231 25.8226C68.9231 24.2197 68.9231 22.6837 68.9899 21.1476C68.9899 19.6115 69.0567 18.0754 69.0567 16.6061C69.1235 15.1369 69.1235 13.7344 69.1902 12.3318C69.257 10.9961 69.3238 9.7272 69.3906 8.52505C69.4574 7.3229 69.5242 6.25433 69.591 5.31933C69.6577 4.38432 69.7245 3.51611 69.7913 2.84825C69.8581 2.18039 69.9249 1.6461 69.9249 1.24539C69.9249 0.911456 69.9249 0.711099 69.9249 0.711099Z" fill="#50A337"/>
<path d="M16.6965 29.4958H17.3644V34.2376H16.6965V29.4958Z" fill="#50A337"/>
<path d="M18.4329 29.4958H19.1008L21.5719 33.3026V29.4958H22.1729V34.2376H21.5051L19.034 30.4308H18.9672V34.2376H18.4329V29.4958Z" fill="#50A337"/>
<path d="M24.2433 30.0301H22.7072V29.4958H26.4472V30.0301H24.9111V34.2376H24.2433V30.0301Z" fill="#50A337"/>
<path d="M26.9816 29.4958H30.2541V30.0301H27.5826V31.5662H30.0537V32.0337H27.5826V33.7034H30.2541V34.2376H26.9816V29.4958Z" fill="#50A337"/>
<path d="M31.0554 29.4958H31.6565V33.7034H34.1276V34.2376H31.0554V29.4958Z" fill="#50A337"/>
<path d="M34.7287 29.4958H35.3298V34.2376H34.7287V29.4958Z" fill="#50A337"/>
<path d="M39.938 33.6366C39.604 34.1041 39.003 34.3044 38.4019 34.3044C36.9994 34.3044 36.1312 33.1691 36.1312 31.9001C36.1312 30.4976 36.8658 29.3623 38.4019 29.3623C39.4037 29.3623 40.2719 29.8298 40.4055 30.8983H39.8044C39.6708 30.1637 39.0697 29.8298 38.4019 29.8298C37.2665 29.8298 36.799 30.8316 36.799 31.8333C36.799 32.8351 37.4001 33.7034 38.4019 33.7034C39.4037 33.7034 39.938 33.0355 39.938 32.1673H38.4019V31.633H40.4723V34.1041H40.0715L39.938 33.6366Z" fill="#50A337"/>
<path d="M42.6761 28.2269H43.2772L43.9451 29.1619H43.4108L42.9433 28.4941L42.4758 29.1619H41.9415L42.6761 28.2269ZM41.474 29.4958H44.7465V30.0301H42.0751V31.5662H44.5462V32.1005H42.0751V33.7034H44.7465V34.2377H41.474V29.4958Z" fill="#50A337"/>
<path d="M45.4812 29.4958H46.1491L48.6201 33.3026V29.4958H49.2212V34.2376H48.5534L46.0823 30.4308V34.2376H45.4812V29.4958Z" fill="#50A337"/>
<path d="M53.5623 30.8983C53.4288 30.2305 52.8945 29.8966 52.2266 29.8966C51.0912 29.8966 50.6237 30.8316 50.6237 31.8333C50.6237 32.9019 51.0912 33.8369 52.2266 33.8369C53.028 33.8369 53.4955 33.2359 53.5623 32.5012H54.1634C54.0298 33.7034 53.2952 34.3712 52.093 34.3712C50.6237 34.3712 49.8891 33.3026 49.8891 31.9001C49.8891 30.5644 50.6905 29.4291 52.1598 29.4291C53.1616 29.4291 53.963 29.9633 54.0966 30.9651H53.5623V30.8983Z" fill="#50A337"/>
<path d="M55.0983 29.4958H55.6994V34.2376H55.0983V29.4958Z" fill="#50A337"/>
<path d="M57.5695 32.3009H59.1724L58.3709 30.0969L57.5695 32.3009ZM58.037 29.4958H58.7049L60.5749 34.2376H59.907L59.3727 32.8351H57.3691L56.8349 34.2376H56.167L58.037 29.4958Z" fill="#50A337"/>
<path d="M17.2976 41.6509H18.3662C18.7669 41.6509 19.969 41.5173 19.969 39.7809C19.969 38.6455 19.5683 37.9777 18.3662 37.9777H17.2976V41.6509ZM16.6965 37.4434H18.2994C19.7687 37.4434 20.5701 38.178 20.5701 39.7141C20.5701 41.317 19.9023 42.1852 18.2994 42.1852H16.6965V37.4434Z" fill="#50A337"/>
<path d="M21.3715 37.4434H21.9725V42.1852H21.3715V37.4434Z" fill="#50A337"/>
<path d="M23.8426 40.1816H25.4455L24.7108 37.9777C24.644 37.9777 23.8426 40.1816 23.8426 40.1816ZM24.3769 37.4434H25.0448L26.9148 42.1852H26.2469L25.7126 40.7827H23.709L23.1748 42.1852H22.5069L24.3769 37.4434Z" fill="#50A337"/>
<path d="M30.8551 41.5841C30.5211 42.0516 29.9201 42.3187 29.319 42.3187C27.9165 42.3187 27.0483 41.1834 27.0483 39.9144C27.0483 38.5119 27.7829 37.3766 29.319 37.3766C30.3208 37.3766 31.189 37.8441 31.3226 38.9127H30.7215C30.5879 38.178 30.0536 37.8441 29.319 37.8441C28.1836 37.8441 27.7161 38.8459 27.7161 39.8477C27.7161 40.8494 28.3172 41.7177 29.319 41.7177C30.3208 41.7177 30.8551 41.0498 30.8551 40.1816H29.3858V39.6473H31.4561V42.1184H31.0554L30.8551 41.5841Z" fill="#50A337"/>
<path d="M32.3911 37.4434H33.059L35.5301 41.2502V37.4434H36.1311V42.1852H35.4633L32.9922 38.3784V42.1852H32.3911V37.4434Z" fill="#50A337"/>
<path d="M39.3369 36.1744H40.0716L39.2034 37.1094H38.7358L39.3369 36.1744ZM39.1366 41.7177C40.2719 41.7177 40.7394 40.7159 40.7394 39.7809C40.7394 38.8459 40.2719 37.8441 39.1366 37.8441C38.0012 37.8441 37.5337 38.8459 37.5337 39.7809C37.5337 40.7827 38.0012 41.7177 39.1366 41.7177ZM39.1366 37.3098C40.6059 37.3098 41.4073 38.5119 41.4073 39.7809C41.4073 41.0498 40.6726 42.252 39.1366 42.252C37.6673 42.252 36.8658 41.0498 36.8658 39.7809C36.8658 38.5119 37.6673 37.3098 39.1366 37.3098Z" fill="#50A337"/>
<path d="M44.8802 38.8459C44.8134 38.178 44.3459 37.9109 43.678 37.9109C43.1437 37.9109 42.6095 38.1112 42.6095 38.7123C42.6095 39.3134 43.3441 39.3802 44.1455 39.5805C44.8802 39.7809 45.6816 40.048 45.6816 40.9162C45.6816 41.918 44.6798 42.3187 43.8116 42.3187C42.743 42.3187 41.8748 41.7844 41.8748 40.6491H42.4759C42.4759 41.4505 43.1437 41.7844 43.8784 41.7844C44.4795 41.7844 45.0805 41.5841 45.0805 40.9162C45.0805 40.2484 44.3459 40.1816 43.5445 39.9812C42.8098 39.8477 42.0084 39.5805 42.0084 38.7123C42.0084 37.7773 42.8766 37.3098 43.7448 37.3098C44.6798 37.3098 45.4145 37.7773 45.4813 38.7791L44.8802 38.8459Z" fill="#50A337"/>
<path d="M47.5516 37.9777H45.9487V37.4434H49.7555V37.9777H48.1527V42.1852H47.5516V37.9777Z" fill="#50A337"/>
<path d="M50.2897 37.4434H50.8908V42.1852H50.2897V37.4434Z" fill="#50A337"/>
<path d="M55.2987 38.8459C55.1651 38.178 54.6309 37.8441 53.963 37.8441C52.8276 37.8441 52.3601 38.7791 52.3601 39.7809C52.3601 40.8494 52.8276 41.7844 53.963 41.7844C54.7644 41.7844 55.2319 41.1834 55.2987 40.4487H55.8998C55.7662 41.6509 55.0316 42.3187 53.8294 42.3187C52.3601 42.3187 51.6255 41.2502 51.6255 39.8477C51.6255 38.4451 52.4269 37.3766 53.8962 37.3766C54.898 37.3766 55.6994 37.9109 55.833 38.9127L55.2987 38.8459Z" fill="#50A337"/>
<path d="M57.5695 40.1816H59.1724L58.3709 37.9777L57.5695 40.1816ZM58.037 37.4434H58.7049L60.5749 42.1852H59.907L59.3727 40.7827H57.3691L56.8349 42.1852H56.167L58.037 37.4434Z" fill="#50A337"/>
</g>
<defs>
<clipPath id="clip0_203_3860">
<rect width="112" height="50.2898" fill="white" transform="translate(0 0.711086)"/>
</clipPath>
</defs>
</svg>
